<?xml version="1.0" standalone="no"?>
<svg xmlns="http://www.w3.org/2000/svg" xmlns:xlink="http://www.w3.org/1999/xlink" width="1279pt" height="3834pt" viewBox="0.00 0.00 1278.97 3834.00">
<g id="graph0" class="graph" transform="translate(-2237.0419484389095,5086.3615967291225) scale(3.3869812494501113)" data-name="G">

<polygon fill="#2e3e56" stroke="transparent" points="-4,4 -4,-3830 1274.97,-3830 1274.97,4 -4,4" style=""/>
<g id="clust1" class="cluster" data-name="clusterIUniswapV2Router01">

<path fill="#445773" stroke="#445773" d="M20,-8C20,-8 291.54,-8 291.54,-8 297.54,-8 303.54,-14 303.54,-20 303.54,-20 303.54,-1045 303.54,-1045 303.54,-1051 297.54,-1057 291.54,-1057 291.54,-1057 20,-1057 20,-1057 14,-1057 8,-1051 8,-1045 8,-1045 8,-20 8,-20 8,-14 14,-8 20,-8" style=""/>
<text text-anchor="middle" x="155.77" y="-1040.4" font-family="Times,serif" font-size="14.00" fill="#f0f0f0" style="">IUniswapV2Router01  (iface)</text>
</g>
<g id="clust2" class="cluster" data-name="clusterIUniswapV2Router02">

<path fill="#445773" stroke="#445773" d="M719.84,-710C719.84,-710 1250.97,-710 1250.97,-710 1256.97,-710 1262.97,-716 1262.97,-722 1262.97,-722 1262.97,-1045 1262.97,-1045 1262.97,-1051 1256.97,-1057 1250.97,-1057 1250.97,-1057 719.84,-1057 719.84,-1057 713.84,-1057 707.84,-1051 707.84,-1045 707.84,-1045 707.84,-722 707.84,-722 707.84,-716 713.84,-710 719.84,-710" style=""/>
<text text-anchor="middle" x="985.41" y="-1040.4" font-family="Times,serif" font-size="14.00" fill="#f0f0f0" style="">IUniswapV2Router02  (iface)</text>
</g>
<g id="clust3" class="cluster" data-name="clusterContext">

<path fill="#445773" stroke="#445773" d="M101,-2840C101,-2840 210.55,-2840 210.55,-2840 216.55,-2840 222.55,-2846 222.55,-2852 222.55,-2852 222.55,-2959 222.55,-2959 222.55,-2965 216.55,-2971 210.55,-2971 210.55,-2971 101,-2971 101,-2971 95,-2971 89,-2965 89,-2959 89,-2959 89,-2852 89,-2852 89,-2846 95,-2840 101,-2840" style=""/>
<text text-anchor="middle" x="155.77" y="-2954.4" font-family="Times,serif" font-size="14.00" fill="#f0f0f0" style="">Context</text>
</g>
<g id="clust4" class="cluster" data-name="clusterIERC20">

<path fill="#445773" stroke="#445773" d="M98.33,-2979C98.33,-2979 213.22,-2979 213.22,-2979 219.22,-2979 225.22,-2985 225.22,-2991 225.22,-2991 225.22,-3314 225.22,-3314 225.22,-3320 219.22,-3326 213.22,-3326 213.22,-3326 98.33,-3326 98.33,-3326 92.33,-3326 86.33,-3320 86.33,-3314 86.33,-3314 86.33,-2991 86.33,-2991 86.33,-2985 92.33,-2979 98.33,-2979" style=""/>
<text text-anchor="middle" x="155.77" y="-3309.4" font-family="Times,serif" font-size="14.00" fill="#f0f0f0" style="">IERC20  (iface)</text>
</g>
<g id="clust5" class="cluster" data-name="clusterIWEAPONStakable">

<path fill="#445773" stroke="#445773" d="M81.78,-3334C81.78,-3334 229.76,-3334 229.76,-3334 235.76,-3334 241.76,-3340 241.76,-3346 241.76,-3346 241.76,-3669 241.76,-3669 241.76,-3675 235.76,-3681 229.76,-3681 229.76,-3681 81.78,-3681 81.78,-3681 75.78,-3681 69.78,-3675 69.78,-3669 69.78,-3669 69.78,-3346 69.78,-3346 69.78,-3340 75.78,-3334 81.78,-3334" style=""/>
<text text-anchor="middle" x="155.77" y="-3664.4" font-family="Times,serif" font-size="14.00" fill="#f0f0f0" style="">IWEAPONStakable  (iface)</text>
</g>
<g id="clust6" class="cluster" data-name="clusterWEAPON">

<path fill="#445773" stroke="#445773" d="M72.07,-1065C72.07,-1065 1045.53,-1065 1045.53,-1065 1051.53,-1065 1057.53,-1071 1057.53,-1077 1057.53,-1077 1057.53,-2820 1057.53,-2820 1057.53,-2826 1051.53,-2832 1045.53,-2832 1045.53,-2832 72.07,-2832 72.07,-2832 66.07,-2832 60.07,-2826 60.07,-2820 60.07,-2820 60.07,-1077 60.07,-1077 60.07,-1071 66.07,-1065 72.07,-1065" style=""/>
<text text-anchor="middle" x="558.8" y="-2815.4" font-family="Times,serif" font-size="14.00" fill="#f0f0f0" style="">WEAPON</text>
</g>
<g id="clust7" class="cluster" data-name="cluster_01">

<polygon fill="#2e3e56" stroke="black" points="82.77,-3689 82.77,-3818 452.12,-3818 452.12,-3689 82.77,-3689" style=""/>
<text text-anchor="middle" x="267.45" y="-3801.4" font-family="Times,serif" font-size="14.00" style="">Legend</text>
</g>
<!-- IUniswapV2Router01.factory -->
<g id="node1" class="node" pointer-events="visible" data-name="IUniswapV2Router01.factory">

<ellipse fill="#ffbdb9" stroke="#ffbdb9" stroke-width="3" cx="155.77" cy="-1006" rx="38.26" ry="18" style=""/>
<text text-anchor="middle" x="155.77" y="-1001.8" font-family="Times,serif" font-size="14.00" style="">factory</text>
</g>
<!-- IUniswapV2Router01.WETH -->
<g id="node2" class="node" pointer-events="visible" data-name="IUniswapV2Router01.WETH">

<ellipse fill="#ffbdb9" stroke="#ffbdb9" stroke-width="3" cx="155.77" cy="-952" rx="38.84" ry="18" style=""/>
<text text-anchor="middle" x="155.77" y="-947.8" font-family="Times,serif" font-size="14.00" style="">WETH</text>
</g>
<!-- IUniswapV2Router01.addLiquidity -->
<g id="node3" class="node" pointer-events="visible" data-name="IUniswapV2Router01.addLiquidity">

<ellipse fill="#ffbdb9" stroke="#ffbdb9" stroke-width="3" cx="155.77" cy="-898" rx="60.86" ry="18" style=""/>
<text text-anchor="middle" x="155.77" y="-893.8" font-family="Times,serif" font-size="14.00" style="">addLiquidity</text>
</g>
<!-- IUniswapV2Router01.addLiquidityETH -->
<g id="node4" class="node" pointer-events="visible" data-name="IUniswapV2Router01.addLiquidityETH">

<ellipse fill="#ffbdb9" stroke="brown" stroke-width="3" cx="155.77" cy="-844" rx="79.9" ry="18" style=""/>
<text text-anchor="middle" x="155.77" y="-839.8" font-family="Times,serif" font-size="14.00" style="">addLiquidityETH</text>
</g>
<!-- IUniswapV2Router01.removeLiquidity -->
<g id="node5" class="node" pointer-events="visible" data-name="IUniswapV2Router01.removeLiquidity">

<ellipse fill="#ffbdb9" stroke="#ffbdb9" stroke-width="3" cx="155.77" cy="-790" rx="75.88" ry="18" style=""/>
<text text-anchor="middle" x="155.77" y="-785.8" font-family="Times,serif" font-size="14.00" style="">removeLiquidity</text>
</g>
<!-- IUniswapV2Router01.removeLiquidityETH -->
<g id="node6" class="node" pointer-events="visible" data-name="IUniswapV2Router01.removeLiquidityETH">

<ellipse fill="#ffbdb9" stroke="#ffbdb9" stroke-width="3" cx="155.77" cy="-736" rx="94.92" ry="18" style=""/>
<text text-anchor="middle" x="155.77" y="-731.8" font-family="Times,serif" font-size="14.00" style="">removeLiquidityETH</text>
</g>
<!-- IUniswapV2Router01.removeLiquidityWithPermit -->
<g id="node7" class="node" pointer-events="visible" data-name="IUniswapV2Router01.removeLiquidityWithPermit">

<ellipse fill="#ffbdb9" stroke="#ffbdb9" stroke-width="3" cx="155.77" cy="-682" rx="121" ry="18" style=""/>
<text text-anchor="middle" x="155.77" y="-677.8" font-family="Times,serif" font-size="14.00" style="">removeLiquidityWithPermit</text>
</g>
<!-- IUniswapV2Router01.removeLiquidityETHWithPermit -->
<g id="node8" class="node" pointer-events="visible" data-name="IUniswapV2Router01.removeLiquidityETHWithPermit">

<ellipse fill="#ffbdb9" stroke="#ffbdb9" stroke-width="3" cx="155.77" cy="-628" rx="139.54" ry="18" style=""/>
<text text-anchor="middle" x="155.77" y="-623.8" font-family="Times,serif" font-size="14.00" style="">removeLiquidityETHWithPermit</text>
</g>
<!-- IUniswapV2Router01.swapExactTokensForTokens -->
<g id="node9" class="node" pointer-events="visible" data-name="IUniswapV2Router01.swapExactTokensForTokens">

<ellipse fill="#ffbdb9" stroke="#ffbdb9" stroke-width="3" cx="155.77" cy="-574" rx="123.26" ry="18" style=""/>
<text text-anchor="middle" x="155.77" y="-569.8" font-family="Times,serif" font-size="14.00" style="">swapExactTokensForTokens</text>
</g>
<!-- IUniswapV2Router01.swapTokensForExactTokens -->
<g id="node10" class="node" pointer-events="visible" data-name="IUniswapV2Router01.swapTokensForExactTokens">

<ellipse fill="#ffbdb9" stroke="#ffbdb9" stroke-width="3" cx="155.77" cy="-520" rx="123.26" ry="18" style=""/>
<text text-anchor="middle" x="155.77" y="-515.8" font-family="Times,serif" font-size="14.00" style="">swapTokensForExactTokens</text>
</g>
<!-- IUniswapV2Router01.swapExactETHForTokens -->
<g id="node11" class="node" pointer-events="visible" data-name="IUniswapV2Router01.swapExactETHForTokens">

<ellipse fill="#ffbdb9" stroke="brown" stroke-width="3" cx="155.77" cy="-466" rx="113.45" ry="18" style=""/>
<text text-anchor="middle" x="155.77" y="-461.8" font-family="Times,serif" font-size="14.00" style="">swapExactETHForTokens</text>
</g>
<!-- IUniswapV2Router01.swapTokensForExactETH -->
<g id="node12" class="node" pointer-events="visible" data-name="IUniswapV2Router01.swapTokensForExactETH">

<ellipse fill="#ffbdb9" stroke="#ffbdb9" stroke-width="3" cx="155.77" cy="-412" rx="113.45" ry="18" style=""/>
<text text-anchor="middle" x="155.77" y="-407.8" font-family="Times,serif" font-size="14.00" style="">swapTokensForExactETH</text>
</g>
<!-- IUniswapV2Router01.swapExactTokensForETH -->
<g id="node13" class="node" pointer-events="visible" data-name="IUniswapV2Router01.swapExactTokensForETH">

<ellipse fill="#ffbdb9" stroke="#ffbdb9" stroke-width="3" cx="155.77" cy="-358" rx="113.45" ry="18" style=""/>
<text text-anchor="middle" x="155.77" y="-353.8" font-family="Times,serif" font-size="14.00" style="">swapExactTokensForETH</text>
</g>
<!-- IUniswapV2Router01.swapETHForExactTokens -->
<g id="node14" class="node" pointer-events="visible" data-name="IUniswapV2Router01.swapETHForExactTokens">

<ellipse fill="#ffbdb9" stroke="brown" stroke-width="3" cx="155.77" cy="-304" rx="113.45" ry="18" style=""/>
<text text-anchor="middle" x="155.77" y="-299.8" font-family="Times,serif" font-size="14.00" style="">swapETHForExactTokens</text>
</g>
<!-- IUniswapV2Router01.quote -->
<g id="node15" class="node" pointer-events="visible" data-name="IUniswapV2Router01.quote">

<ellipse fill="#ffbdb9" stroke="#ffbdb9" stroke-width="3" cx="155.77" cy="-250" rx="32.48" ry="18" style=""/>
<text text-anchor="middle" x="155.77" y="-245.8" font-family="Times,serif" font-size="14.00" style="">quote</text>
</g>
<!-- IUniswapV2Router01.getAmountOut -->
<g id="node16" class="node" pointer-events="visible" data-name="IUniswapV2Router01.getAmountOut">

<ellipse fill="#ffbdb9" stroke="#ffbdb9" stroke-width="3" cx="155.77" cy="-196" rx="68.94" ry="18" style=""/>
<text text-anchor="middle" x="155.77" y="-191.8" font-family="Times,serif" font-size="14.00" style="">getAmountOut</text>
</g>
<!-- IUniswapV2Router01.getAmountIn -->
<g id="node17" class="node" pointer-events="visible" data-name="IUniswapV2Router01.getAmountIn">

<ellipse fill="#ffbdb9" stroke="#ffbdb9" stroke-width="3" cx="155.77" cy="-142" rx="62.56" ry="18" style=""/>
<text text-anchor="middle" x="155.77" y="-137.8" font-family="Times,serif" font-size="14.00" style="">getAmountIn</text>
</g>
<!-- IUniswapV2Router01.getAmountsOut -->
<g id="node18" class="node" pointer-events="visible" data-name="IUniswapV2Router01.getAmountsOut">

<ellipse fill="#ffbdb9" stroke="#ffbdb9" stroke-width="3" cx="155.77" cy="-88" rx="72.95" ry="18" style=""/>
<text text-anchor="middle" x="155.77" y="-83.8" font-family="Times,serif" font-size="14.00" style="">getAmountsOut</text>
</g>
<!-- IUniswapV2Router01.getAmountsIn -->
<g id="node19" class="node" pointer-events="visible" data-name="IUniswapV2Router01.getAmountsIn">

<ellipse fill="#ffbdb9" stroke="#ffbdb9" stroke-width="3" cx="155.77" cy="-34" rx="66.07" ry="18" style=""/>
<text text-anchor="middle" x="155.77" y="-29.8" font-family="Times,serif" font-size="14.00" style="">getAmountsIn</text>
</g>
<!-- IUniswapV2Router02.removeLiquidityETHSupportingFeeOnTransferTokens -->
<g id="node20" class="node" pointer-events="visible" data-name="IUniswapV2Router02.removeLiquidityETHSupportingFeeOnTransferTokens">

<ellipse fill="#ffbdb9" stroke="#ffbdb9" stroke-width="3" cx="985.41" cy="-1006" rx="224.51" ry="18" style=""/>
<text text-anchor="middle" x="985.41" y="-1001.8" font-family="Times,serif" font-size="14.00" style="">removeLiquidityETHSupportingFeeOnTransferTokens</text>
</g>
<!-- IUniswapV2Router02.removeLiquidityETHWithPermitSupportingFeeOnTransferTokens -->
<g id="node21" class="node" pointer-events="visible" data-name="IUniswapV2Router02.removeLiquidityETHWithPermitSupportingFeeOnTransferTokens">

<ellipse fill="#ffbdb9" stroke="#ffbdb9" stroke-width="3" cx="985.41" cy="-952" rx="269.63" ry="18" style=""/>
<text text-anchor="middle" x="985.41" y="-947.8" font-family="Times,serif" font-size="14.00" style="">removeLiquidityETHWithPermitSupportingFeeOnTransferTokens</text>
</g>
<!-- IUniswapV2Router02.swapExactTokensForTokensSupportingFeeOnTransferTokens -->
<g id="node22" class="node" pointer-events="visible" data-name="IUniswapV2Router02.swapExactTokensForTokensSupportingFeeOnTransferTokens">

<ellipse fill="#ffbdb9" stroke="#ffbdb9" stroke-width="3" cx="985.41" cy="-898" rx="252.84" ry="18" style=""/>
<text text-anchor="middle" x="985.41" y="-893.8" font-family="Times,serif" font-size="14.00" style="">swapExactTokensForTokensSupportingFeeOnTransferTokens</text>
</g>
<!-- IUniswapV2Router02.swapExactETHForTokensSupportingFeeOnTransferTokens -->
<g id="node23" class="node" pointer-events="visible" data-name="IUniswapV2Router02.swapExactETHForTokensSupportingFeeOnTransferTokens">

<ellipse fill="#ffbdb9" stroke="brown" stroke-width="3" cx="985.41" cy="-844" rx="243.03" ry="18" style=""/>
<text text-anchor="middle" x="985.41" y="-839.8" font-family="Times,serif" font-size="14.00" style="">swapExactETHForTokensSupportingFeeOnTransferTokens</text>
</g>
<!-- IUniswapV2Router02.swapExactTokensForETHSupportingFeeOnTransferTokens -->
<g id="node24" class="node" pointer-events="visible" data-name="IUniswapV2Router02.swapExactTokensForETHSupportingFeeOnTransferTokens">

<ellipse fill="#edad56" stroke="#edad56" stroke-width="3" cx="985.41" cy="-790" rx="243.03" ry="18" style=""/>
<text text-anchor="middle" x="985.41" y="-785.8" font-family="Times,serif" font-size="14.00" style="">swapExactTokensForETHSupportingFeeOnTransferTokens</text>
</g>
<!-- IUniswapV2Router02.WETH -->
<g id="node25" class="node" pointer-events="visible" data-name="IUniswapV2Router02.WETH">

<ellipse fill="#edad56" stroke="#edad56" stroke-width="3" cx="985.41" cy="-736" rx="38.84" ry="18" style=""/>
<text text-anchor="middle" x="985.41" y="-731.8" font-family="Times,serif" font-size="14.00" style="">WETH</text>
</g>
<!-- Context._msgSender -->
<g id="node26" class="node" pointer-events="visible" data-name="Context._msgSender">

<ellipse fill="#f2c383" stroke="#f2c383" stroke-width="3" cx="155.77" cy="-2920" rx="58.55" ry="18" style=""/>
<text text-anchor="middle" x="155.77" y="-2915.8" font-family="Times,serif" font-size="14.00" style="">_msgSender</text>
</g>
<!-- Context._msgData -->
<g id="node27" class="node" pointer-events="visible" data-name="Context._msgData">

<ellipse fill="#f2c383" stroke="#f2c383" stroke-width="3" cx="155.77" cy="-2866" rx="50.38" ry="18" style=""/>
<text text-anchor="middle" x="155.77" y="-2861.8" font-family="Times,serif" font-size="14.00" style="">_msgData</text>
</g>
<!-- IERC20.totalSupply -->
<g id="node28" class="node" pointer-events="visible" data-name="IERC20.totalSupply">

<ellipse fill="#ffbdb9" stroke="#ffbdb9" stroke-width="3" cx="155.77" cy="-3275" rx="55.64" ry="18" style=""/>
<text text-anchor="middle" x="155.77" y="-3270.8" font-family="Times,serif" font-size="14.00" style="">totalSupply</text>
</g>
<!-- IERC20.balanceOf -->
<g id="node29" class="node" pointer-events="visible" data-name="IERC20.balanceOf">

<ellipse fill="#ffbdb9" stroke="#ffbdb9" stroke-width="3" cx="155.77" cy="-3221" rx="50.92" ry="18" style=""/>
<text text-anchor="middle" x="155.77" y="-3216.8" font-family="Times,serif" font-size="14.00" style="">balanceOf</text>
</g>
<!-- IERC20.transfer -->
<g id="node30" class="node" pointer-events="visible" data-name="IERC20.transfer">

<ellipse fill="#ffbdb9" stroke="#ffbdb9" stroke-width="3" cx="155.77" cy="-3167" rx="40.54" ry="18" style=""/>
<text text-anchor="middle" x="155.77" y="-3162.8" font-family="Times,serif" font-size="14.00" style="">transfer</text>
</g>
<!-- IERC20.allowance -->
<g id="node31" class="node" pointer-events="visible" data-name="IERC20.allowance">

<ellipse fill="#ffbdb9" stroke="#ffbdb9" stroke-width="3" cx="155.77" cy="-3113" rx="50.36" ry="18" style=""/>
<text text-anchor="middle" x="155.77" y="-3108.8" font-family="Times,serif" font-size="14.00" style="">allowance</text>
</g>
<!-- IERC20.approve -->
<g id="node32" class="node" pointer-events="visible" data-name="IERC20.approve">

<ellipse fill="#ffbdb9" stroke="#ffbdb9" stroke-width="3" cx="155.77" cy="-3059" rx="42.28" ry="18" style=""/>
<text text-anchor="middle" x="155.77" y="-3054.8" font-family="Times,serif" font-size="14.00" style="">approve</text>
</g>
<!-- IERC20.transferFrom -->
<g id="node33" class="node" pointer-events="visible" data-name="IERC20.transferFrom">

<ellipse fill="#ffbdb9" stroke="#ffbdb9" stroke-width="3" cx="155.77" cy="-3005" rx="61.39" ry="18" style=""/>
<text text-anchor="middle" x="155.77" y="-3000.8" font-family="Times,serif" font-size="14.00" style="">transferFrom</text>
</g>
<!-- IWEAPONStakable.stakedBalanceOf -->
<g id="node34" class="node" pointer-events="visible" data-name="IWEAPONStakable.stakedBalanceOf">

<ellipse fill="#ffbdb9" stroke="#ffbdb9" stroke-width="3" cx="155.77" cy="-3630" rx="76.98" ry="18" style=""/>
<text text-anchor="middle" x="155.77" y="-3625.8" font-family="Times,serif" font-size="14.00" style="">stakedBalanceOf</text>
</g>
<!-- IWEAPONStakable.getStake -->
<g id="node35" class="node" pointer-events="visible" data-name="IWEAPONStakable.getStake">

<ellipse fill="#ffbdb9" stroke="#ffbdb9" stroke-width="3" cx="155.77" cy="-3576" rx="44.08" ry="18" style=""/>
<text text-anchor="middle" x="155.77" y="-3571.8" font-family="Times,serif" font-size="14.00" style="">getStake</text>
</g>
<!-- IWEAPONStakable.stake -->
<g id="node36" class="node" pointer-events="visible" data-name="IWEAPONStakable.stake">

<ellipse fill="#ffbdb9" stroke="#ffbdb9" stroke-width="3" cx="155.77" cy="-3522" rx="30.76" ry="18" style=""/>
<text text-anchor="middle" x="155.77" y="-3517.8" font-family="Times,serif" font-size="14.00" style="">stake</text>
</g>
<!-- IWEAPONStakable.unstake -->
<g id="node37" class="node" pointer-events="visible" data-name="IWEAPONStakable.unstake">

<ellipse fill="#ffbdb9" stroke="#ffbdb9" stroke-width="3" cx="155.77" cy="-3468" rx="40.57" ry="18" style=""/>
<text text-anchor="middle" x="155.77" y="-3463.8" font-family="Times,serif" font-size="14.00" style="">unstake</text>
</g>
<!-- IWEAPONStakable.sync -->
<g id="node38" class="node" pointer-events="visible" data-name="IWEAPONStakable.sync">

<ellipse fill="#ffbdb9" stroke="#ffbdb9" stroke-width="3" cx="155.77" cy="-3414" rx="28.97" ry="18" style=""/>
<text text-anchor="middle" x="155.77" y="-3409.8" font-family="Times,serif" font-size="14.00" style="">sync</text>
</g>
<!-- IWEAPONStakable.toggleStaking -->
<g id="node39" class="node" pointer-events="visible" data-name="IWEAPONStakable.toggleStaking">

<ellipse fill="#ffbdb9" stroke="#ffbdb9" stroke-width="3" cx="155.77" cy="-3360" rx="64.87" ry="18" style=""/>
<text text-anchor="middle" x="155.77" y="-3355.8" font-family="Times,serif" font-size="14.00" style="">toggleStaking</text>
</g>
<!-- WEAPON.&lt;Constructor&gt; -->
<g id="node40" class="node" pointer-events="visible" data-name="WEAPON.&lt;Constructor&gt;">

<ellipse fill="#ff9797" stroke="#ff9797" stroke-width="3" cx="155.77" cy="-2727" rx="67.54" ry="18" style=""/>
<text text-anchor="middle" x="155.77" y="-2722.8" font-family="Times,serif" font-size="14.00" style="">&lt;Constructor&gt;</text>
</g>
<!-- WEAPON._msgSender -->
<g id="node77" class="node" pointer-events="visible" data-name="WEAPON._msgSender">

<ellipse fill="#edad56" stroke="#edad56" stroke-width="3" cx="417.12" cy="-1928" rx="58.55" ry="18" style=""/>
<text text-anchor="middle" x="417.12" y="-1923.8" font-family="Times,serif" font-size="14.00" style="">_msgSender</text>
</g>
<!-- WEAPON.&lt;Constructor&gt;&#45;&gt;WEAPON._msgSender -->
<g id="edge1" class="edge" data-name="WEAPON.&lt;Constructor&gt;-&gt;WEAPON._msgSender">

<path fill="none" stroke="#1bc6a6" stroke-width="2" d="M221.74,-2722.86C250.6,-2720.22 282.69,-2712.64 303.54,-2691 407.89,-2582.71 415.92,-2081.47 416.21,-1956.29" style=""/>
<polygon fill="#1bc6a6" stroke="#1bc6a6" stroke-width="2" points="419.71,-1956.01 416.22,-1946.01 412.71,-1956.01 419.71,-1956.01" style=""/>
</g>
<!-- WEAPON.&lt;Constructor&gt;&#45;&gt;WEAPON._msgSender -->
<g id="edge2" class="edge" data-name="WEAPON.&lt;Constructor&gt;-&gt;WEAPON._msgSender">

<path fill="none" stroke="#1bc6a6" stroke-width="2" d="M206.11,-2739.1C238.32,-2740.54 278.83,-2734.65 303.54,-2709 409.59,-2598.94 416.15,-2083 416.22,-1956.14" style=""/>
<polygon fill="#1bc6a6" stroke="#1bc6a6" stroke-width="2" points="419.72,-1956.05 416.21,-1946.06 412.72,-1956.06 419.72,-1956.05" style=""/>
</g>
<!-- WEAPON.payable -->
<g id="node78" class="node" pointer-events="visible" data-name="WEAPON.payable">

<ellipse fill="#edad56" stroke="#edad56" stroke-width="3" cx="417.12" cy="-2727" rx="41.13" ry="18" style=""/>
<text text-anchor="middle" x="417.12" y="-2722.8" font-family="Times,serif" font-size="14.00" style="">payable</text>
</g>
<!-- WEAPON.&lt;Constructor&gt;&#45;&gt;WEAPON.payable -->
<g id="edge3" class="edge" data-name="WEAPON.&lt;Constructor&gt;-&gt;WEAPON.payable">

<path fill="none" stroke="#1bc6a6" stroke-width="2" d="M219.88,-2721.11C265.22,-2719.82 325.45,-2719.98 367.17,-2721.58" style=""/>
<polygon fill="#1bc6a6" stroke="#1bc6a6" stroke-width="2" points="367.22,-2725.09 377.36,-2722.02 367.52,-2718.09 367.22,-2725.09" style=""/>
</g>
<!-- WEAPON.&lt;Constructor&gt;&#45;&gt;WEAPON.payable -->
<g id="edge4" class="edge" data-name="WEAPON.&lt;Constructor&gt;-&gt;WEAPON.payable">

<path fill="none" stroke="#1bc6a6" stroke-width="2" d="M219.88,-2732.89C265.22,-2734.18 325.45,-2734.02 367.17,-2732.42" style=""/>
<polygon fill="#1bc6a6" stroke="#1bc6a6" stroke-width="2" points="367.52,-2735.91 377.36,-2731.98 367.22,-2728.91 367.52,-2735.91" style=""/>
</g>
<!-- WEAPON.onlyMultiSig -->
<g id="node41" class="node" pointer-events="visible" data-name="WEAPON.onlyMultiSig">

<polygon fill="#edad56" stroke="#1bc6a6" stroke-width="3" points="223.67,-2059.54 223.67,-2074.46 183.9,-2085 127.65,-2085 87.88,-2074.46 87.88,-2059.54 127.65,-2049 183.9,-2049 223.67,-2059.54" style=""/>
<polygon fill="none" stroke="#1bc6a6" stroke-width="3" points="227.68,-2056.47 227.68,-2077.53 184.42,-2089 127.12,-2089 83.87,-2077.53 83.87,-2056.47 127.12,-2045 184.42,-2045 227.68,-2056.47" style=""/>
<text text-anchor="middle" x="155.77" y="-2062.8" font-family="Times,serif" font-size="14.00" style="">onlyMultiSig</text>
</g>
<!-- WEAPON.onlyMultiSig&#45;&gt;WEAPON._msgSender -->
<g id="edge5" class="edge" data-name="WEAPON.onlyMultiSig-&gt;WEAPON._msgSender">

<path fill="none" stroke="#1bc6a6" stroke-width="2" d="M227.83,-2060.12C252.82,-2055.64 280.41,-2048.23 303.54,-2036 341.83,-2015.75 376.22,-1978.66 396.63,-1953.66" style=""/>
<polygon fill="#1bc6a6" stroke="#1bc6a6" stroke-width="2" points="399.49,-1955.69 403.01,-1945.69 394.03,-1951.32 399.49,-1955.69" style=""/>
</g>
<!-- WEAPON.lockSwap -->
<g id="node42" class="node" pointer-events="visible" data-name="WEAPON.lockSwap">

<polygon fill="#edad56" stroke="#1bc6a6" stroke-width="3" points="209.09,-2661.54 209.09,-2676.46 177.86,-2687 133.69,-2687 102.45,-2676.46 102.45,-2661.54 133.69,-2651 177.86,-2651 209.09,-2661.54" style=""/>
<polygon fill="none" stroke="#1bc6a6" stroke-width="3" points="213.1,-2658.68 213.1,-2679.32 178.52,-2691 133.03,-2691 98.44,-2679.32 98.44,-2658.68 133.03,-2647 178.52,-2647 213.1,-2658.68" style=""/>
<text text-anchor="middle" x="155.77" y="-2664.8" font-family="Times,serif" font-size="14.00" style="">lockSwap</text>
</g>
<!-- WEAPON.name -->
<g id="node43" class="node" pointer-events="visible" data-name="WEAPON.name">

<ellipse fill="#ffbdb9" stroke="#ffbdb9" stroke-width="3" cx="155.77" cy="-2611" rx="31.9" ry="18" style=""/>
<text text-anchor="middle" x="155.77" y="-2606.8" font-family="Times,serif" font-size="14.00" style="">name</text>
</g>
<!-- WEAPON.symbol -->
<g id="node44" class="node" pointer-events="visible" data-name="WEAPON.symbol">

<ellipse fill="#ffbdb9" stroke="#ffbdb9" stroke-width="3" cx="155.77" cy="-2557" rx="39.45" ry="18" style=""/>
<text text-anchor="middle" x="155.77" y="-2552.8" font-family="Times,serif" font-size="14.00" style="">symbol</text>
</g>
<!-- WEAPON.version -->
<g id="node45" class="node" pointer-events="visible" data-name="WEAPON.version">

<ellipse fill="#ffbdb9" stroke="#ffbdb9" stroke-width="3" cx="155.77" cy="-2503" rx="39.43" ry="18" style=""/>
<text text-anchor="middle" x="155.77" y="-2498.8" font-family="Times,serif" font-size="14.00" style="">version</text>
</g>
<!-- WEAPON.decimals -->
<g id="node46" class="node" pointer-events="visible" data-name="WEAPON.decimals">

<ellipse fill="#ffbdb9" stroke="#ffbdb9" stroke-width="3" cx="155.77" cy="-2449" rx="45.22" ry="18" style=""/>
<text text-anchor="middle" x="155.77" y="-2444.8" font-family="Times,serif" font-size="14.00" style="">decimals</text>
</g>
<!-- WEAPON.totalSupply -->
<g id="node47" class="node" pointer-events="visible" data-name="WEAPON.totalSupply">

<ellipse fill="#ffbdb9" stroke="#ffbdb9" stroke-width="3" cx="155.77" cy="-2395" rx="55.64" ry="18" style=""/>
<text text-anchor="middle" x="155.77" y="-2390.8" font-family="Times,serif" font-size="14.00" style="">totalSupply</text>
</g>
<!-- WEAPON.balanceOf -->
<g id="node48" class="node" pointer-events="visible" data-name="WEAPON.balanceOf">

<ellipse fill="#ffbdb9" stroke="#ffbdb9" stroke-width="3" cx="155.77" cy="-2341" rx="50.92" ry="18" style=""/>
<text text-anchor="middle" x="155.77" y="-2336.8" font-family="Times,serif" font-size="14.00" style="">balanceOf</text>
</g>
<!-- WEAPON.stakedBalanceOf -->
<g id="node49" class="node" pointer-events="visible" data-name="WEAPON.stakedBalanceOf">

<ellipse fill="#ffbdb9" stroke="#ffbdb9" stroke-width="3" cx="155.77" cy="-2287" rx="76.98" ry="18" style=""/>
<text text-anchor="middle" x="155.77" y="-2282.8" font-family="Times,serif" font-size="14.00" style="">stakedBalanceOf</text>
</g>
<!-- WEAPON.getStake -->
<g id="node50" class="node" pointer-events="visible" data-name="WEAPON.getStake">

<ellipse fill="#ffbdb9" stroke="#ffbdb9" stroke-width="3" cx="155.77" cy="-2233" rx="44.08" ry="18" style=""/>
<text text-anchor="middle" x="155.77" y="-2228.8" font-family="Times,serif" font-size="14.00" style="">getStake</text>
</g>
<!-- WEAPON.transfer -->
<g id="node51" class="node" pointer-events="visible" data-name="WEAPON.transfer">

<ellipse fill="#ffbdb9" stroke="#ffbdb9" stroke-width="3" cx="155.77" cy="-1199" rx="40.54" ry="18" style=""/>
<text text-anchor="middle" x="155.77" y="-1194.8" font-family="Times,serif" font-size="14.00" style="">transfer</text>
</g>
<!-- WEAPON._transfer -->
<g id="node56" class="node" pointer-events="visible" data-name="WEAPON._transfer">

<ellipse fill="#edad56" stroke="#edad56" stroke-width="3" cx="417.12" cy="-1199" rx="45.2" ry="18" style=""/>
<text text-anchor="middle" x="417.12" y="-1194.8" font-family="Times,serif" font-size="14.00" style="">_transfer</text>
</g>
<!-- WEAPON.transfer&#45;&gt;WEAPON._transfer -->
<g id="edge6" class="edge" data-name="WEAPON.transfer-&gt;WEAPON._transfer">

<path fill="none" stroke="#1bc6a6" stroke-width="2" d="M196.44,-1199C240.56,-1199 312.09,-1199 361.48,-1199" style=""/>
<polygon fill="#1bc6a6" stroke="#1bc6a6" stroke-width="2" points="361.67,-1202.5 371.67,-1199 361.67,-1195.5 361.67,-1202.5" style=""/>
</g>
<!-- WEAPON.transfer&#45;&gt;WEAPON._msgSender -->
<g id="edge7" class="edge" data-name="WEAPON.transfer-&gt;WEAPON._msgSender">

<path fill="none" stroke="#1bc6a6" stroke-width="2" d="M195.48,-1194.83C228.82,-1193.54 275.84,-1197.65 303.54,-1226 351.8,-1275.38 401.7,-1774.7 413.51,-1899.73" style=""/>
<polygon fill="#1bc6a6" stroke="#1bc6a6" stroke-width="2" points="410.05,-1900.38 414.47,-1910.01 417.02,-1899.72 410.05,-1900.38" style=""/>
</g>
<!-- WEAPON.allowance -->
<g id="node52" class="node" pointer-events="visible" data-name="WEAPON.allowance">

<ellipse fill="#ffbdb9" stroke="#ffbdb9" stroke-width="3" cx="155.77" cy="-2125" rx="50.36" ry="18" style=""/>
<text text-anchor="middle" x="155.77" y="-2120.8" font-family="Times,serif" font-size="14.00" style="">allowance</text>
</g>
<!-- WEAPON.approve -->
<g id="node53" class="node" pointer-events="visible" data-name="WEAPON.approve">

<ellipse fill="#ffbdb9" stroke="#ffbdb9" stroke-width="3" cx="155.77" cy="-2179" rx="42.28" ry="18" style=""/>
<text text-anchor="middle" x="155.77" y="-2174.8" font-family="Times,serif" font-size="14.00" style="">approve</text>
</g>
<!-- WEAPON._approve -->
<g id="node55" class="node" pointer-events="visible" data-name="WEAPON._approve">

<ellipse fill="#edad56" stroke="#edad56" stroke-width="3" cx="985.41" cy="-1577" rx="46.93" ry="18" style=""/>
<text text-anchor="middle" x="985.41" y="-1572.8" font-family="Times,serif" font-size="14.00" style="">_approve</text>
</g>
<!-- WEAPON.approve&#45;&gt;WEAPON._approve -->
<g id="edge8" class="edge" data-name="WEAPON.approve-&gt;WEAPON._approve">

<path fill="none" stroke="#1bc6a6" stroke-width="2" d="M197.74,-2177.12C228.18,-2174.4 270.05,-2167.83 303.54,-2152 608.06,-2008.04 887.04,-1693.1 963.7,-1602.09" style=""/>
<polygon fill="#1bc6a6" stroke="#1bc6a6" stroke-width="2" points="966.54,-1604.15 970.28,-1594.23 961.18,-1599.65 966.54,-1604.15" style=""/>
</g>
<!-- WEAPON.approve&#45;&gt;WEAPON._msgSender -->
<g id="edge9" class="edge" data-name="WEAPON.approve-&gt;WEAPON._msgSender">

<path fill="none" stroke="#1bc6a6" stroke-width="2" d="M197.65,-2181.68C229.86,-2181.61 274.09,-2176.35 303.54,-2152 330,-2130.12 316.94,-2111.07 331.54,-2080 352.85,-2034.67 382.04,-1984.28 399.97,-1954.41" style=""/>
<polygon fill="#1bc6a6" stroke="#1bc6a6" stroke-width="2" points="402.97,-1956.2 405.14,-1945.83 396.98,-1952.58 402.97,-1956.2" style=""/>
</g>
<!-- WEAPON.transferFrom -->
<g id="node54" class="node" pointer-events="visible" data-name="WEAPON.transferFrom">

<ellipse fill="#ffbdb9" stroke="#ffbdb9" stroke-width="3" cx="155.77" cy="-1577" rx="61.39" ry="18" style=""/>
<text text-anchor="middle" x="155.77" y="-1572.8" font-family="Times,serif" font-size="14.00" style="">transferFrom</text>
</g>
<!-- WEAPON.transferFrom&#45;&gt;WEAPON._approve -->
<g id="edge12" class="edge" data-name="WEAPON.transferFrom-&gt;WEAPON._approve">

<path fill="none" stroke="#1bc6a6" stroke-width="2" d="M217.29,-1577C371.59,-1577 778.03,-1577 927.88,-1577" style=""/>
<polygon fill="#1bc6a6" stroke="#1bc6a6" stroke-width="2" points="928.22,-1580.5 938.22,-1577 928.22,-1573.5 928.22,-1580.5" style=""/>
</g>
<!-- WEAPON.transferFrom&#45;&gt;WEAPON._transfer -->
<g id="edge11" class="edge" data-name="WEAPON.transferFrom-&gt;WEAPON._transfer">

<path fill="none" stroke="#1bc6a6" stroke-width="2" d="M215.26,-1581.87C245.98,-1581.02 281.68,-1574.07 303.54,-1550 352.14,-1496.51 286.44,-1282.47 331.54,-1226 339.44,-1216.12 350.96,-1209.8 362.98,-1205.77" style=""/>
<polygon fill="#1bc6a6" stroke="#1bc6a6" stroke-width="2" points="364,-1209.12 372.66,-1203.01 362.08,-1202.38 364,-1209.12" style=""/>
</g>
<!-- WEAPON.transferFrom&#45;&gt;WEAPON._msgSender -->
<g id="edge10" class="edge" data-name="WEAPON.transferFrom-&gt;WEAPON._msgSender">

<path fill="none" stroke="#1bc6a6" stroke-width="2" d="M186.04,-1561.24C218.57,-1554.94 270.81,-1557.91 303.54,-1586 398.15,-1667.18 413.31,-1832.26 415.69,-1899.57" style=""/>
<polygon fill="#1bc6a6" stroke="#1bc6a6" stroke-width="2" points="412.2,-1899.98 415.98,-1909.87 419.2,-1899.78 412.2,-1899.98" style=""/>
</g>
<!-- WEAPON.transferFrom&#45;&gt;WEAPON._msgSender -->
<g id="edge13" class="edge" data-name="WEAPON.transferFrom-&gt;WEAPON._msgSender">

<path fill="none" stroke="#1bc6a6" stroke-width="2" d="M216.69,-1574.6C245.94,-1576.5 279.85,-1583.67 303.54,-1604 394.11,-1681.71 411.87,-1836.31 415.31,-1899.79" style=""/>
<polygon fill="#1bc6a6" stroke="#1bc6a6" stroke-width="2" points="411.82,-1900.03 415.78,-1909.86 418.81,-1899.71 411.82,-1900.03" style=""/>
</g>
<!-- WEAPON.transferFrom&#45;&gt;WEAPON._msgSender -->
<g id="edge14" class="edge" data-name="WEAPON.transferFrom-&gt;WEAPON._msgSender">

<path fill="none" stroke="#1bc6a6" stroke-width="2" d="M201.89,-1589.01C233.82,-1592.4 275.72,-1598.13 303.54,-1622 389.24,-1695.53 409.75,-1837.88 414.62,-1899.46" style=""/>
<polygon fill="#1bc6a6" stroke="#1bc6a6" stroke-width="2" points="411.15,-1899.91 415.34,-1909.64 418.13,-1899.42 411.15,-1899.91" style=""/>
</g>
<!-- WEAPON._tokensToETH -->
<g id="node72" class="node" pointer-events="visible" data-name="WEAPON._tokensToETH">

<ellipse fill="#edad56" stroke="#edad56" stroke-width="3" cx="609.27" cy="-1199" rx="70.65" ry="18" style=""/>
<text text-anchor="middle" x="609.27" y="-1194.8" font-family="Times,serif" font-size="14.00" style="">_tokensToETH</text>
</g>
<!-- WEAPON._transfer&#45;&gt;WEAPON._tokensToETH -->
<g id="edge15" class="edge" data-name="WEAPON._transfer-&gt;WEAPON._tokensToETH">

<path fill="none" stroke="#1bc6a6" stroke-width="2" d="M462.7,-1199C482.31,-1199 505.96,-1199 528.44,-1199" style=""/>
<polygon fill="#1bc6a6" stroke="#1bc6a6" stroke-width="2" points="528.67,-1202.5 538.67,-1199 528.66,-1195.5 528.67,-1202.5" style=""/>
</g>
<!-- WEAPON.stake -->
<g id="node57" class="node" pointer-events="visible" data-name="WEAPON.stake">

<ellipse fill="#ffbdb9" stroke="#ffbdb9" stroke-width="3" cx="155.77" cy="-1955" rx="30.76" ry="18" style=""/>
<text text-anchor="middle" x="155.77" y="-1950.8" font-family="Times,serif" font-size="14.00" style="">stake</text>
</g>
<!-- WEAPON.stake&#45;&gt;WEAPON._msgSender -->
<g id="edge16" class="edge" data-name="WEAPON.stake-&gt;WEAPON._msgSender">

<path fill="none" stroke="#1bc6a6" stroke-width="2" d="M186.27,-1951.93C226.18,-1947.77 298.47,-1940.25 351.35,-1934.74" style=""/>
<polygon fill="#1bc6a6" stroke="#1bc6a6" stroke-width="2" points="351.73,-1938.22 361.32,-1933.71 351.01,-1931.26 351.73,-1938.22" style=""/>
</g>
<!-- WEAPON.unstake -->
<g id="node58" class="node" pointer-events="visible" data-name="WEAPON.unstake">

<ellipse fill="#ffbdb9" stroke="#ffbdb9" stroke-width="3" cx="155.77" cy="-1901" rx="40.57" ry="18" style=""/>
<text text-anchor="middle" x="155.77" y="-1896.8" font-family="Times,serif" font-size="14.00" style="">unstake</text>
</g>
<!-- WEAPON.unstake&#45;&gt;WEAPON._msgSender -->
<g id="edge17" class="edge" data-name="WEAPON.unstake-&gt;WEAPON._msgSender">

<path fill="none" stroke="#1bc6a6" stroke-width="2" d="M195.32,-1905.01C236.29,-1909.28 301.8,-1916.1 350.84,-1921.2" style=""/>
<polygon fill="#1bc6a6" stroke="#1bc6a6" stroke-width="2" points="350.73,-1924.71 361.04,-1922.27 351.46,-1917.75 350.73,-1924.71" style=""/>
</g>
<!-- WEAPON.sync -->
<g id="node59" class="node" pointer-events="visible" data-name="WEAPON.sync">

<ellipse fill="#ffbdb9" stroke="#ffbdb9" stroke-width="3" cx="155.77" cy="-1847" rx="28.97" ry="18" style=""/>
<text text-anchor="middle" x="155.77" y="-1842.8" font-family="Times,serif" font-size="14.00" style="">sync</text>
</g>
<!-- WEAPON.sync&#45;&gt;WEAPON._msgSender -->
<g id="edge18" class="edge" data-name="WEAPON.sync-&gt;WEAPON._msgSender">

<path fill="none" stroke="#1bc6a6" stroke-width="2" d="M184.36,-1849.86C214.27,-1853.47 263.14,-1860.85 303.54,-1874 329.76,-1882.53 357.71,-1895.91 379.21,-1907.22" style=""/>
<polygon fill="#1bc6a6" stroke="#1bc6a6" stroke-width="2" points="377.83,-1910.45 388.3,-1912.08 381.13,-1904.28 377.83,-1910.45" style=""/>
</g>
<!-- WEAPON.freezeMint -->
<g id="node60" class="node" pointer-events="visible" data-name="WEAPON.freezeMint">

<ellipse fill="#ffbdb9" stroke="#ffbdb9" stroke-width="3" cx="155.77" cy="-1793" rx="53.29" ry="18" style=""/>
<text text-anchor="middle" x="155.77" y="-1788.8" font-family="Times,serif" font-size="14.00" style="">freezeMint</text>
</g>
<!-- WEAPON.thawMint -->
<g id="node61" class="node" pointer-events="visible" data-name="WEAPON.thawMint">

<ellipse fill="#ffbdb9" stroke="#ffbdb9" stroke-width="3" cx="155.77" cy="-1739" rx="48.67" ry="18" style=""/>
<text text-anchor="middle" x="155.77" y="-1734.8" font-family="Times,serif" font-size="14.00" style="">thawMint</text>
</g>
<!-- WEAPON.mint -->
<g id="node62" class="node" pointer-events="visible" data-name="WEAPON.mint">

<ellipse fill="#ffbdb9" stroke="#ffbdb9" stroke-width="3" cx="155.77" cy="-1685" rx="28.99" ry="18" style=""/>
<text text-anchor="middle" x="155.77" y="-1680.8" font-family="Times,serif" font-size="14.00" style="">mint</text>
</g>
<!-- WEAPON.toggleStaking -->
<g id="node63" class="node" pointer-events="visible" data-name="WEAPON.toggleStaking">

<ellipse fill="#ffbdb9" stroke="#ffbdb9" stroke-width="3" cx="155.77" cy="-1631" rx="64.87" ry="18" style=""/>
<text text-anchor="middle" x="155.77" y="-1626.8" font-family="Times,serif" font-size="14.00" style="">toggleStaking</text>
</g>
<!-- WEAPON.setStakingContract -->
<g id="node64" class="node" pointer-events="visible" data-name="WEAPON.setStakingContract">

<ellipse fill="#ffbdb9" stroke="#ffbdb9" stroke-width="3" cx="155.77" cy="-2781" rx="84.55" ry="18" style=""/>
<text text-anchor="middle" x="155.77" y="-2776.8" font-family="Times,serif" font-size="14.00" style="">setStakingContract</text>
</g>
<!-- WEAPON.setStakingContract&#45;&gt;WEAPON.payable -->
<g id="edge19" class="edge" data-name="WEAPON.setStakingContract-&gt;WEAPON.payable">

<path fill="none" stroke="#1bc6a6" stroke-width="2" d="M221.95,-2769.78C247.46,-2765.19 276.93,-2759.64 303.54,-2754 326.02,-2749.24 350.86,-2743.35 371.49,-2738.29" style=""/>
<polygon fill="#1bc6a6" stroke="#1bc6a6" stroke-width="2" points="372.37,-2741.67 381.24,-2735.87 370.69,-2734.88 372.37,-2741.67" style=""/>
</g>
<!-- WEAPON.getStakingContract -->
<g id="node65" class="node" pointer-events="visible" data-name="WEAPON.getStakingContract">

<ellipse fill="#ffbdb9" stroke="#ffbdb9" stroke-width="3" cx="155.77" cy="-1523" rx="85.69" ry="18" style=""/>
<text text-anchor="middle" x="155.77" y="-1518.8" font-family="Times,serif" font-size="14.00" style="">getStakingContract</text>
</g>
<!-- WEAPON.setBuyTax -->
<g id="node66" class="node" pointer-events="visible" data-name="WEAPON.setBuyTax">

<ellipse fill="#ffbdb9" stroke="#ffbdb9" stroke-width="3" cx="155.77" cy="-1469" rx="52.75" ry="18" style=""/>
<text text-anchor="middle" x="155.77" y="-1464.8" font-family="Times,serif" font-size="14.00" style="">setBuyTax</text>
</g>
<!-- WEAPON.setSellTax -->
<g id="node67" class="node" pointer-events="visible" data-name="WEAPON.setSellTax">

<ellipse fill="#ffbdb9" stroke="#ffbdb9" stroke-width="3" cx="155.77" cy="-1415" rx="51.6" ry="18" style=""/>
<text text-anchor="middle" x="155.77" y="-1410.8" font-family="Times,serif" font-size="14.00" style="">setSellTax</text>
</g>
<!-- WEAPON.setRewards -->
<g id="node68" class="node" pointer-events="visible" data-name="WEAPON.setRewards">

<ellipse fill="#ffbdb9" stroke="#ffbdb9" stroke-width="3" cx="155.77" cy="-1361" rx="55.59" ry="18" style=""/>
<text text-anchor="middle" x="155.77" y="-1356.8" font-family="Times,serif" font-size="14.00" style="">setRewards</text>
</g>
<!-- WEAPON.setPool -->
<g id="node69" class="node" pointer-events="visible" data-name="WEAPON.setPool">

<ellipse fill="#ffbdb9" stroke="#ffbdb9" stroke-width="3" cx="155.77" cy="-1307" rx="39.44" ry="18" style=""/>
<text text-anchor="middle" x="155.77" y="-1302.8" font-family="Times,serif" font-size="14.00" style="">setPool</text>
</g>
<!-- WEAPON.isPool -->
<g id="node70" class="node" pointer-events="visible" data-name="WEAPON.isPool">

<ellipse fill="#ffbdb9" stroke="#ffbdb9" stroke-width="3" cx="155.77" cy="-1253" rx="35.37" ry="18" style=""/>
<text text-anchor="middle" x="155.77" y="-1248.8" font-family="Times,serif" font-size="14.00" style="">isPool</text>
</g>
<!-- WEAPON._transferETH -->
<g id="node71" class="node" pointer-events="visible" data-name="WEAPON._transferETH">

<ellipse fill="#edad56" stroke="#edad56" stroke-width="3" cx="985.41" cy="-1199" rx="64.24" ry="18" style=""/>
<text text-anchor="middle" x="985.41" y="-1194.8" font-family="Times,serif" font-size="14.00" style="">_transferETH</text>
</g>
<!-- WEAPON._tokensToETH&#45;&gt;IUniswapV2Router02.swapExactTokensForETHSupportingFeeOnTransferTokens -->
<g id="edge22" class="edge" data-name="WEAPON._tokensToETH-&gt;IUniswapV2Router02.swapExactTokensForETHSupportingFeeOnTransferTokens">

<path fill="none" stroke="white" stroke-width="2" d="M612.18,-1180.9C619.85,-1111.78 650.83,-865.91 707.84,-817 753.1,-778.18 819.11,-770.55 875.29,-773.04" style=""/>
<polygon fill="white" stroke="white" stroke-width="2" points="875.12,-776.54 885.3,-773.59 875.5,-769.55 875.12,-776.54" style=""/>
</g>
<!-- WEAPON._tokensToETH&#45;&gt;IUniswapV2Router02.WETH -->
<g id="edge20" class="edge" data-name="WEAPON._tokensToETH-&gt;IUniswapV2Router02.WETH">

<path fill="none" stroke="white" stroke-width="2" d="M611.56,-1180.99C617.33,-1106.03 643.34,-820.03 707.84,-763 771.91,-706.36 879.84,-715.21 940.18,-726.01" style=""/>
<polygon fill="white" stroke="white" stroke-width="2" points="939.68,-729.48 950.16,-727.9 940.98,-722.6 939.68,-729.48" style=""/>
</g>
<!-- WEAPON._tokensToETH&#45;&gt;WEAPON._approve -->
<g id="edge21" class="edge" data-name="WEAPON._tokensToETH-&gt;WEAPON._approve">

<path fill="none" stroke="#1bc6a6" stroke-width="2" d="M627.57,-1216.47C688.16,-1277.69 890.95,-1482.58 960.65,-1552.99" style=""/>
<polygon fill="#1bc6a6" stroke="#1bc6a6" stroke-width="2" points="958.2,-1555.5 967.72,-1560.14 963.18,-1550.57 958.2,-1555.5" style=""/>
</g>
<!-- WEAPON._tokensToETH&#45;&gt;WEAPON._transferETH -->
<g id="edge23" class="edge" data-name="WEAPON._tokensToETH-&gt;WEAPON._transferETH">

<path fill="none" stroke="#1bc6a6" stroke-width="2" d="M676.73,-1193.7C743.34,-1191.81 845.52,-1191.77 913.62,-1193.58" style=""/>
<polygon fill="#1bc6a6" stroke="#1bc6a6" stroke-width="2" points="913.73,-1197.08 923.83,-1193.87 913.93,-1190.08 913.73,-1197.08" style=""/>
</g>
<!-- WEAPON._tokensToETH&#45;&gt;WEAPON._transferETH -->
<g id="edge24" class="edge" data-name="WEAPON._tokensToETH-&gt;WEAPON._transferETH">

<path fill="none" stroke="#1bc6a6" stroke-width="2" d="M676.73,-1204.3C743.34,-1206.19 845.52,-1206.23 913.62,-1204.42" style=""/>
<polygon fill="#1bc6a6" stroke="#1bc6a6" stroke-width="2" points="913.93,-1207.92 923.83,-1204.13 913.73,-1200.92 913.93,-1207.92" style=""/>
</g>
<!-- WEAPON.failsafeTokenSwap -->
<g id="node73" class="node" pointer-events="visible" data-name="WEAPON.failsafeTokenSwap">

<ellipse fill="#ffbdb9" stroke="#ffbdb9" stroke-width="3" cx="417.12" cy="-1253" rx="85.65" ry="18" style=""/>
<text text-anchor="middle" x="417.12" y="-1248.8" font-family="Times,serif" font-size="14.00" style="">failsafeTokenSwap</text>
</g>
<!-- WEAPON.failsafeTokenSwap&#45;&gt;WEAPON._tokensToETH -->
<g id="edge25" class="edge" data-name="WEAPON.failsafeTokenSwap-&gt;WEAPON._tokensToETH">

<path fill="none" stroke="#1bc6a6" stroke-width="2" d="M469.08,-1238.53C494.54,-1231.3 525.42,-1222.53 551.62,-1215.09" style=""/>
<polygon fill="#1bc6a6" stroke="#1bc6a6" stroke-width="2" points="552.75,-1218.41 561.41,-1212.31 550.84,-1211.67 552.75,-1218.41" style=""/>
</g>
<!-- WEAPON.failsafeETHtransfer -->
<g id="node74" class="node" pointer-events="visible" data-name="WEAPON.failsafeETHtransfer">

<ellipse fill="#ffbdb9" stroke="#ffbdb9" stroke-width="3" cx="155.77" cy="-2009" rx="87.91" ry="18" style=""/>
<text text-anchor="middle" x="155.77" y="-2004.8" font-family="Times,serif" font-size="14.00" style="">failsafeETHtransfer</text>
</g>
<!-- WEAPON.failsafeETHtransfer&#45;&gt;WEAPON._msgSender -->
<g id="edge26" class="edge" data-name="WEAPON.failsafeETHtransfer-&gt;WEAPON._msgSender">

<path fill="none" stroke="#1bc6a6" stroke-width="2" d="M230.14,-1999.43C253.89,-1995.3 280.14,-1989.62 303.54,-1982 329.76,-1973.47 357.71,-1960.09 379.21,-1948.78" style=""/>
<polygon fill="#1bc6a6" stroke="#1bc6a6" stroke-width="2" points="381.13,-1951.72 388.3,-1943.92 377.83,-1945.55 381.13,-1951.72" style=""/>
</g>
<!-- WEAPON.&lt;Receive Ether&gt; -->
<g id="node75" class="node" pointer-events="visible" data-name="WEAPON.&lt;Receive Ether&gt;">

<ellipse fill="#ffbdb9" stroke="brown" stroke-width="3" cx="155.77" cy="-1145" rx="76.21" ry="18" style=""/>
<text text-anchor="middle" x="155.77" y="-1140.8" font-family="Times,serif" font-size="14.00" style="">&lt;Receive Ether&gt;</text>
</g>
<!-- WEAPON.&lt;Fallback&gt; -->
<g id="node76" class="node" pointer-events="visible" data-name="WEAPON.&lt;Fallback&gt;">

<ellipse fill="#ffbdb9" stroke="brown" stroke-width="3" cx="155.77" cy="-1091" rx="55.36" ry="18" style=""/>
<text text-anchor="middle" x="155.77" y="-1086.8" font-family="Times,serif" font-size="14.00" style="">&lt;Fallback&gt;</text>
</g>
<!-- key -->
<g id="node79" class="node" pointer-events="visible" data-name="key">

<polygon fill="#edad56" stroke="transparent" stroke-width="3" points="220.77,-3785 90.77,-3785 90.77,-3697 220.77,-3697 220.77,-3785" style=""/>
<text text-anchor="start" x="140.41" y="-3766.4" font-family="Times,serif" font-size="14.00" style="">Internal Call</text>
<text text-anchor="start" x="136.52" y="-3746.4" font-family="Times,serif" font-size="14.00" style="">External Call</text>
<text text-anchor="start" x="113.98" y="-3726.4" font-family="Times,serif" font-size="14.00" style="">Defined Contract</text>
<text text-anchor="start" x="100.37" y="-3706.4" font-family="Times,serif" font-size="14.00" style="">Undefined Contract</text>
</g>
<!-- key2 -->
<g id="node80" class="node" pointer-events="visible" data-name="key2">

<polygon fill="#edad56" stroke="transparent" stroke-width="3" points="444.12,-3785 390.12,-3785 390.12,-3697 444.12,-3697 444.12,-3785" style=""/>
<text text-anchor="start" x="404.88" y="-3766.4" font-family="Times,serif" font-size="14.00" style="">   </text>
<text text-anchor="start" x="404.88" y="-3746.4" font-family="Times,serif" font-size="14.00" style="">   </text>
<polygon fill="#445773" stroke="transparent" points="403.12,-3721 403.12,-3741 431.12,-3741 431.12,-3721 403.12,-3721" style=""/>
<text text-anchor="start" x="404.88" y="-3726.4" font-family="Times,serif" font-size="14.00" style="">   </text>
<polygon fill="none" stroke="#e8726d" points="405.12,-3703 405.12,-3719 429.12,-3719 429.12,-3703 405.12,-3703" style=""/>
</g>
<!-- key&#45;&gt;key2 -->
<g id="edge27" class="edge" data-name="key-&gt;key2">

<path fill="none" stroke="#1bc6a6" stroke-width="2" d="M213.77,-3771C293.89,-3771 316.5,-3771 391.67,-3771" style=""/>
<polygon fill="#1bc6a6" stroke="#1bc6a6" stroke-width="2" points="392.12,-3774.5 402.12,-3771 392.12,-3767.5 392.12,-3774.5" style=""/>
</g>
<!-- key&#45;&gt;key2 -->
<g id="edge28" class="edge" data-name="key-&gt;key2">

<path fill="none" stroke="white" stroke-width="2" d="M213.77,-3751C293.89,-3751 316.5,-3751 391.67,-3751" style=""/>
<polygon fill="white" stroke="white" stroke-width="2" points="392.12,-3754.5 402.12,-3751 392.12,-3747.5 392.12,-3754.5" style=""/>
</g>
</g>
</svg>